<?xml version="1.0" encoding="utf-8"?>
<!-- Generator: Adobe Illustrator 22.0.0, SVG Export Plug-In . SVG Version: 6.00 Build 0)  -->
<svg version="1.1" id="Capa_1" xmlns="http://www.w3.org/2000/svg" xmlns:xlink="http://www.w3.org/1999/xlink" x="0px" y="0px"
	 viewBox="0 0 300 300" style="enable-background:new 0 0 300 300;" xml:space="preserve">
<style type="text/css">
	.st0{fill:#FFFFFF;stroke:#000000;stroke-width:1.2677;stroke-miterlimit:10;}
	.st1{fill:#FFFFFF;stroke:#000000;stroke-width:1.7971;stroke-miterlimit:10;}
</style>
<rect id="H8" x="48" y="38" class="st0" width="204.4" height="224.8"/>
<path id="C1" class="st1" d="M166.3,97.9h-32.1c-6.1,0-11.2-5-11.2-11.2l0,0c0-6.1,5-11.2,11.2-11.2h32.1c6.1,0,11.2,5,11.2,11.2
	l0,0C177.5,93,172.5,97.9,166.3,97.9z"/>
<path id="C1_1_" class="st1" d="M166.3,224.9h-32.1c-6.1,0-11.2-5-11.2-11.2l0,0c0-6.1,5-11.2,11.2-11.2h32.1
	c6.1,0,11.2,5,11.2,11.2l0,0C177.5,220,172.5,224.9,166.3,224.9z"/>
</svg>
