<?xml version="1.0" encoding="utf-8"?>
<!-- Generator: Adobe Illustrator 22.0.0, SVG Export Plug-In . SVG Version: 6.00 Build 0)  -->
<svg version="1.1" id="Capa_1" xmlns="http://www.w3.org/2000/svg" xmlns:xlink="http://www.w3.org/1999/xlink" x="0px" y="0px"
	 viewBox="0 0 300 300" style="enable-background:new 0 0 300 300;" xml:space="preserve">
<style type="text/css">
	.st0{fill:#FFFFFF;}
	.st1{fill:none;stroke:#000000;stroke-width:0.75;stroke-miterlimit:10;}
	.st2{font-family:'Calibri';}
	.st3{font-size:20px;}
	.st4{fill:#FFFFFF;stroke:#000000;stroke-width:1.1211;stroke-miterlimit:10;}
</style>
<g id="A7">
	<g id="XMLID_4_">
		<g>
			<polygon class="st0" points="230.4,29 229.6,277 229.6,277.3 68,277.3 68,153 148.3,153.1 148.3,29.7 			"/>
		</g>
		<g>
			<polyline class="st1" points="68,277.3 229.6,277.3 230.4,277.3 			"/>
			<line class="st1" x1="68" y1="277.3" x2="68" y2="153"/>
			<line class="st1" x1="68" y1="153" x2="148.3" y2="153.1"/>
			<line class="st1" x1="148.3" y1="153.1" x2="148.3" y2="29.7"/>
			<line class="st1" x1="148.3" y1="29.7" x2="230.4" y2="29"/>
			<line class="st1" x1="230.4" y1="29" x2="229.6" y2="277"/>
		</g>
	</g>
</g>
<text transform="matrix(1 0 0 1 172.6113 152.8125)" class="st2 st3">UCE</text>
<path id="C1" class="st4" d="M199.5,54.5h-20c-3.8,0-7-3.1-7-7l0,0c0-3.8,3.1-7,7-7h20c3.8,0,7,3.1,7,7l0,0
	C206.5,51.4,203.4,54.5,199.5,54.5z"/>
<path id="C1_1_" class="st4" d="M199.5,85.5h-20c-3.8,0-7-3.1-7-7l0,0c0-3.8,3.1-7,7-7h20c3.8,0,7,3.1,7,7l0,0
	C206.5,82.4,203.4,85.5,199.5,85.5z"/>
<path id="C1_2_" class="st4" d="M103.5,222.5h-20c-3.8,0-7-3.1-7-7l0,0c0-3.8,3.1-7,7-7h20c3.8,0,7,3.1,7,7l0,0
	C110.5,219.4,107.4,222.5,103.5,222.5z"/>
<path id="C1_3_" class="st4" d="M103.5,193.5h-20c-3.8,0-7-3.1-7-7l0,0c0-3.8,3.1-7,7-7h20c3.8,0,7,3.1,7,7l0,0
	C110.5,190.4,107.4,193.5,103.5,193.5z"/>
<path id="C1_4_" class="st4" d="M103.5,254.5h-20c-3.8,0-7-3.1-7-7l0,0c0-3.8,3.1-7,7-7h20c3.8,0,7,3.1,7,7l0,0
	C110.5,251.4,107.4,254.5,103.5,254.5z"/>
<path id="C1_5_" class="st4" d="M216.5,218.5h-20c-3.8,0-7-3.1-7-7l0,0c0-3.8,3.1-7,7-7h20c3.8,0,7,3.1,7,7l0,0
	C223.5,215.4,220.4,218.5,216.5,218.5z"/>
<path id="C1_6_" class="st4" d="M216.5,254.5h-20c-3.8,0-7-3.1-7-7l0,0c0-3.8,3.1-7,7-7h20c3.8,0,7,3.1,7,7l0,0
	C223.5,251.4,220.4,254.5,216.5,254.5z"/>
</svg>
