<?xml version="1.0" encoding="utf-8"?>
<!-- Generator: Adobe Illustrator 22.0.0, SVG Export Plug-In . SVG Version: 6.00 Build 0)  -->
<svg version="1.1" id="Capa_1" xmlns="http://www.w3.org/2000/svg" xmlns:xlink="http://www.w3.org/1999/xlink" x="0px" y="0px"
	 viewBox="0 0 300 300" style="enable-background:new 0 0 300 300;" xml:space="preserve">
<style type="text/css">
	.st0{fill:#FFFFFF;stroke:#000000;stroke-width:0.75;stroke-miterlimit:10;}
	.st1{stroke:#000000;stroke-width:0.75;stroke-miterlimit:10;}
	.st2{font-family:'ArialMT';}
	.st3{font-size:16px;}
	.st4{fill:#FFFFFF;stroke:#000000;stroke-width:1.1211;stroke-miterlimit:10;}
</style>
<g id="UCO">
	<rect x="62.7" y="46.7" class="st0" width="174.6" height="206.6"/>
	<path class="st1" d="M236.6,48.1v204.5H64.1V48.1H236.6 M238,46H62v208h176V46L238,46z"/>
</g>
<text transform="matrix(1.0154 0 0 1 136.2627 150.3984)" class="st2 st3">UCO</text>
<path id="C1" class="st4" d="M99.5,93.5h-20c-3.8,0-7-3.1-7-7l0,0c0-3.8,3.1-7,7-7h20c3.8,0,7,3.1,7,7l0,0
	C106.5,90.4,103.4,93.5,99.5,93.5z"/>
<path id="C2" class="st4" d="M99.5,152.5h-20c-3.8,0-7-3.1-7-7l0,0c0-3.8,3.1-7,7-7h20c3.8,0,7,3.1,7,7l0,0
	C106.5,149.4,103.4,152.5,99.5,152.5z"/>
<path id="C3" class="st4" d="M99.5,211.5h-20c-3.8,0-7-3.1-7-7l0,0c0-3.8,3.1-7,7-7h20c3.8,0,7,3.1,7,7l0,0
	C106.5,208.4,103.4,211.5,99.5,211.5z"/>
<path id="C4" class="st4" d="M220.5,93.5h-20c-3.8,0-7-3.1-7-7l0,0c0-3.8,3.1-7,7-7h20c3.8,0,7,3.1,7,7l0,0
	C227.5,90.4,224.4,93.5,220.5,93.5z"/>
<path id="C5" class="st4" d="M220.5,152.5h-20c-3.8,0-7-3.1-7-7l0,0c0-3.8,3.1-7,7-7h20c3.8,0,7,3.1,7,7l0,0
	C227.5,149.4,224.4,152.5,220.5,152.5z"/>
<path id="C6" class="st4" d="M220.5,211.5h-20c-3.8,0-7-3.1-7-7l0,0c0-3.8,3.1-7,7-7h20c3.8,0,7,3.1,7,7l0,0
	C227.5,208.4,224.4,211.5,220.5,211.5z"/>
</svg>
