<?xml version="1.0" encoding="utf-8"?>
<!-- Generator: Adobe Illustrator 22.0.0, SVG Export Plug-In . SVG Version: 6.00 Build 0)  -->
<svg version="1.1" id="Capa_1" xmlns="http://www.w3.org/2000/svg" xmlns:xlink="http://www.w3.org/1999/xlink" x="0px" y="0px"
	 viewBox="0 0 300 300" style="enable-background:new 0 0 300 300;" xml:space="preserve">
<style type="text/css">
	.st0{fill:#FFFFFF;}
	.st1{fill:none;stroke:#000000;stroke-width:0.75;stroke-miterlimit:10;}
	.st2{font-family:'Calibri';}
	.st3{font-size:29.5406px;}
	.st4{fill:#FFFFFF;stroke:#000000;stroke-width:1.1211;stroke-miterlimit:10;}
</style>
<g id="UTI">
	<g id="A2">
		<g id="XMLID_2_">
			<g>
				<polygon class="st0" points="275,21 275,153.8 196.4,153.8 196.4,282 19.9,282 19.9,158.1 19.9,21 				"/>
			</g>
			<g>
				<line class="st1" x1="19.9" y1="21" x2="275" y2="21"/>
				<line class="st1" x1="275" y1="21" x2="275" y2="153.8"/>
				<line class="st1" x1="275" y1="153.8" x2="196.4" y2="153.8"/>
				<line class="st1" x1="196.4" y1="153.8" x2="196.4" y2="282"/>
				<line class="st1" x1="196.4" y1="282" x2="19.9" y2="282"/>
				<line class="st1" x1="19.9" y1="282" x2="19.9" y2="158.1"/>
				<line class="st1" x1="19.9" y1="158.1" x2="19.9" y2="21"/>
			</g>
		</g>
	</g>
	<text transform="matrix(1.1995 0 0 1 108.1538 148.5459)" class="st2 st3">UTI</text>
</g>
<path id="C11" class="st4" d="M57.5,260.5h-20c-3.8,0-7-3.1-7-7l0,0c0-3.8,3.1-7,7-7h20c3.8,0,7,3.1,7,7l0,0
	C64.5,257.4,61.4,260.5,57.5,260.5z"/>
<path id="C10" class="st4" d="M57.5,231.5h-20c-3.8,0-7-3.1-7-7l0,0c0-3.8,3.1-7,7-7h20c3.8,0,7,3.1,7,7l0,0
	C64.5,228.4,61.4,231.5,57.5,231.5z"/>
<path id="C9" class="st4" d="M57.5,202.5h-20c-3.8,0-7-3.1-7-7l0,0c0-3.8,3.1-7,7-7h20c3.8,0,7,3.1,7,7l0,0
	C64.5,199.4,61.4,202.5,57.5,202.5z"/>
<path id="C8" class="st4" d="M177.5,260.5h-20c-3.8,0-7-3.1-7-7l0,0c0-3.8,3.1-7,7-7h20c3.8,0,7,3.1,7,7l0,0
	C184.5,257.4,181.4,260.5,177.5,260.5z"/>
<path id="C7" class="st4" d="M177.5,231.5h-20c-3.8,0-7-3.1-7-7l0,0c0-3.8,3.1-7,7-7h20c3.8,0,7,3.1,7,7l0,0
	C184.5,228.4,181.4,231.5,177.5,231.5z"/>
<path id="C6" class="st4" d="M177.5,202.5h-20c-3.8,0-7-3.1-7-7l0,0c0-3.8,3.1-7,7-7h20c3.8,0,7,3.1,7,7l0,0
	C184.5,199.4,181.4,202.5,177.5,202.5z"/>
<path id="C5" class="st4" d="M174.5,55.5v-20c0-3.8,3.1-7,7-7l0,0c3.8,0,7,3.1,7,7v20c0,3.8-3.1,7-7,7l0,0
	C177.6,62.5,174.5,59.4,174.5,55.5z"/>
<path id="C4" class="st4" d="M40.5,55.5v-20c0-3.8,3.1-7,7-7l0,0c3.8,0,7,3.1,7,7v20c0,3.8-3.1,7-7,7l0,0
	C43.6,62.5,40.5,59.4,40.5,55.5z"/>
<path id="C3" class="st4" d="M75.5,55.5v-20c0-3.8,3.1-7,7-7l0,0c3.8,0,7,3.1,7,7v20c0,3.8-3.1,7-7,7l0,0
	C78.6,62.5,75.5,59.4,75.5,55.5z"/>
<path id="C2" class="st4" d="M154.5,35.5v20c0,3.8-3.1,7-7,7l0,0c-3.8,0-7-3.1-7-7v-20c0-3.8,3.1-7,7-7l0,0
	C151.4,28.5,154.5,31.6,154.5,35.5z"/>
<path id="C1" class="st4" d="M108.5,55.5v-20c0-3.8,3.1-7,7-7l0,0c3.8,0,7,3.1,7,7v20c0,3.8-3.1,7-7,7l0,0
	C111.6,62.5,108.5,59.4,108.5,55.5z"/>
</svg>
